<?xml version="1.0" encoding="utf-8"?>
<!-- Generator: Adobe Illustrator 24.3.0, SVG Export Plug-In . SVG Version: 6.00 Build 0)  -->
<svg version="1.1" id="Layer_1" xmlns="http://www.w3.org/2000/svg" xmlns:xlink="http://www.w3.org/1999/xlink" x="0px" y="0px"
	 viewBox="0 0 512 512" style="enable-background:new 0 0 512 512;" xml:space="preserve">
<style type="text/css">
	.st0{fill:#0086D0;}
	.st1{fill:#8EC320;}
</style>
<g id="XMLID_28_">
	<path id="XMLID_36_" class="st0" d="M262.26,200.25h-28.59v-13.94h-7.54v13.8h-28.3v39.11h28.3v21.19h7.54v-21.19h28.59V200.25z
		 M226.14,232.39h-20.91v-25.32h20.91V232.39z M254.87,232.39h-21.19v-25.32h21.19V232.39z"/>
	<path id="XMLID_39_" class="st0" d="M345.18,188.87h-65.42v69.4h65.42V188.87z M338.07,251.73h-51.2V195.7h51.2V251.73z"/>
	<polyline id="XMLID_40_" class="st0" points="315.74,239.08 315.74,223.86 331.52,223.86 331.52,217.32 315.74,217.32 
		315.74,207.79 332.8,207.79 332.8,201.39 291.56,201.39 291.56,207.79 308.77,207.79 308.77,217.32 292.98,217.32 292.98,223.86 
		308.77,223.86 308.77,239.08 290.42,239.08 290.42,245.62 333.94,245.62 333.94,239.08 315.74,239.08 	"/>
	<path id="XMLID_41_" class="st0" d="M325.55,238.36l5.69-4.55c-2.99-3.41-8.39-9.53-8.39-9.53l-5.26,3.98
		C322.14,233.39,325.55,238.36,325.55,238.36"/>
	<path id="XMLID_42_" class="st0" d="M385.14,234.95l4.84-5.55l-12.09-10.24v-3.56h10.24v-6.54h-10.24v-10.52
		c4.69-1.14,10.38-2.28,10.38-2.28l-1.42-6.97c-6.12,1.99-26.6,4.12-26.6,4.12l1,6.83l9.53-1.56v10.24h-11.52v6.54h10.81
		c-0.85,2.7-4.55,13.8-12.09,24.32l5.26,5.69c0,0,4.41-6.97,7.54-14.08v29.16h7.11v-32.57L385.14,234.95"/>
	<path id="XMLID_43_" class="st0" d="M413.44,223.86c0.57-1.14,1.14-2.28,1.71-3.41l-6.83-1.14c1-0.57,1.99-1.14,2.99-1.85
		c13.65-8.96,18.06-18.92,18.06-18.92v-5.97h-23.47c1-1.56,1.85-2.99,2.56-4.55l-6.83-2.7c0,0-5.55,12.09-16.36,20.34l5.83,4.55
		c0,0,5.12-4.84,10.24-11.09h19.91c-2.7,4.27-6.68,7.96-10.95,10.95l-8.82-7.25l-4.55,4.84l7.4,6.26
		c-9.1,4.98-17.64,7.25-17.64,7.25l4.55,5.69c6.4-2.42,11.24-4.41,15.5-6.54c-1.14,1.99-3.98,6.26-9.1,11.09
		c-3.13,2.99-7.4,6.12-12.52,8.82l5.4,5.4c0,0,10.67-5.4,18.49-14.93h14.93c-1.56,7.25-6.12,12.23-11.66,15.79l-8.11-7.82
		l-5.12,4.12c0,0,4.55,4.27,6.97,6.97c-10.81,4.55-22.47,4.84-22.47,4.84l3.13,5.97c14.65-1.14,24.46-5.12,31.29-10.38
		c11.38-8.68,14.08-19.77,14.08-19.77V224h-18.63"/>
	<rect id="XMLID_45_" x="444.88" y="193.14" class="st0" width="31" height="6.97"/>
	<path id="XMLID_46_" class="st0" d="M469.91,249.32l7.11-2.7c-1.56-3.56-8.53-19.34-8.53-19.34l-6.54,2.84
		c1.85,3.84,3.56,8.11,5.12,11.66c-3.27,0.71-11.66,2.7-15.93,4.12c0,0,1.99-3.41,5.83-13.8c3.13-8.53,3.56-11.09,4.84-12.66h16.92
		v-6.97h-36.84v6.97h11.8c-0.57,2.13-2.56,9.96-5.69,17.49c-1.85,4.27-3.7,8.39-6.26,11.52l1.71,5.4c0,0,18.63-5.69,25.74-6.26
		C469.62,248.75,469.91,249.32,469.91,249.32"/>
	<path id="XMLID_47_" class="st0" d="M493.23,201.67l0.28-15.22h-7.82c0,0,0,6.83,0.14,15.22h-9.53v6.97h9.67
		c0,5.26-0.14,10.81-0.43,14.51c-0.71,8.68-1.99,12.23-1.99,12.23c-3.84,14.36-15.08,20.76-15.08,20.76l5.55,5.26
		c20.05-12.8,18.77-41.39,18.77-41.39l0.28-11.38h12.37l-1.56,37.69c0,4.69-4.55,4.55-4.55,4.55h-8.68l1.42,7.54h8.25
		c10.52,0,10.95-10.81,10.95-10.81l1.71-45.8h-19.77"/>
	<rect id="XMLID_51_" x="273.36" y="288.28" class="st0" width="5.83" height="29.44"/>
	<rect id="XMLID_52_" x="273.36" y="276.48" class="st0" width="5.83" height="6.54"/>
	<rect id="XMLID_53_" x="464.5" y="288.28" class="st0" width="5.83" height="29.44"/>
	<rect id="XMLID_54_" x="476.73" y="273.21" class="st0" width="5.83" height="44.37"/>
	<rect id="XMLID_59_" x="464.5" y="276.48" class="st0" width="5.83" height="6.54"/>
	<path id="XMLID_60_" class="st0" d="M260.41,287.86c0,0-6.83-1.71-11.52,3.41v-17.92h-5.83v44.37h5.83v-20.2
		c1-1.99,3.84-5.97,9.39-4.84c0,0,3.13,0.57,3.13,5.69c0,5.69,0,19.34,0,19.34h5.97v-19.2
		C267.52,298.52,268.24,289.71,260.41,287.86"/>
	<path id="XMLID_61_" class="st0" d="M302.51,287.86c0,0-7.11-1.85-11.8,3.84l-0.85-3.56h-4.41v29.58h5.69v-19.91l0,0
		c1.14-1.85,4.12-5.97,9.53-4.98c0,0,3.13,0.57,3.13,5.69c0,5.69,0,19.34,0,19.34h5.97v-19.2
		C309.48,298.52,310.33,289.71,302.51,287.86"/>
	<path id="XMLID_64_" class="st0" d="M330.67,288.28c-6.97-2.56-14.51,0.85-14.51,0.85v5.4c0,0,15.5-6.97,15.5,5.26v0.28
		c0,0-8.53-2.56-13.08,0.28c0,0-7.25,3.98-3.98,12.23c0,0,2.56,5.97,9.24,5.69c2.28-0.14,4.98-1,8.25-3.13l0.43,2.42h5.12v-18.77
		C337.36,298.95,338.07,290.99,330.67,288.28z M331.38,310.19c0,0-2.7,2.84-7.82,2.99c0,0-4.84-0.28-4.12-5.12
		c0.71-4.98,6.83-4.55,11.8-2.99v5.12"/>
	<polyline id="XMLID_65_" class="st0" points="375.04,306.77 362.53,276.62 354.42,276.62 354.42,317.72 360.4,317.72 360.4,286.44 
		373.62,317.72 376.47,317.72 389.55,286.58 389.55,317.72 395.52,317.72 395.52,276.62 387.7,276.62 375.04,306.77 	"/>
	<path id="XMLID_68_" class="st0" d="M414.72,287.43c-8.39,0-15.36,6.83-15.36,15.36s6.83,15.36,15.36,15.36
		c8.53,0,15.36-6.83,15.36-15.36C430.08,294.26,423.26,287.43,414.72,287.43z M414.72,313.03c-5.55,0-10.1-4.55-10.1-10.24
		c0-5.69,4.55-10.24,10.1-10.24c5.55,0,10.1,4.55,10.1,10.24C424.96,308.48,420.41,313.03,414.72,313.03"/>
	<path id="XMLID_71_" class="st0" d="M452.7,288.71c-7.54-3.56-12.66,1.56-12.66,1.56v-16.92h-5.97v44.37h4.55l0.71-2.56
		c2.56,3.13,7.25,3.27,7.25,3.27c3.98,0,7.11-1.85,9.39-4.12c2.56-2.7,3.84-6.83,3.98-8.53
		C460.52,301.23,460.38,292.41,452.7,288.71z M447.01,313.32c-5.4,0.14-7.11-3.27-7.11-3.27v-14.36c0,0,2.56-2.99,6.97-2.99
		s6.4,3.41,6.97,8.53C454.4,306.2,453.12,313.17,447.01,313.32"/>
	<path id="XMLID_74_" class="st0" d="M509.16,291.84c-3.41-4.69-9.1-4.27-9.1-4.27c-3.41,0-6.4,1.42-8.39,3.13
		c-3.13,2.7-4.12,6.83-4.12,6.83c-2.56,10.38,2.13,16.07,2.13,16.07c2.28,3.13,6.83,4.69,10.52,4.98
		c6.26,0.43,10.81-1.85,10.81-1.85v-5.26c-18.35,6.4-18.49-6.83-18.49-6.83h19.77C512.43,298.24,511.01,294.26,509.16,291.84z
		 M492.95,299.52c0,0,1.28-6.83,7.11-6.83s5.97,6.83,5.97,6.83H492.95"/>
	<path id="XMLID_75_" class="st0" d="M218.74,312.6c-8.53,0-15.5-6.97-15.5-15.64s6.97-15.64,15.5-15.64
		c5.83,0,10.81,3.27,13.51,7.96h6.26c-3.13-7.96-10.67-13.51-19.63-13.51c-11.66,0-21.05,9.53-21.05,21.19s9.53,21.19,21.05,21.19
		c9.1,0,16.78-5.69,19.77-13.8h-6.12C229.84,309.19,224.72,312.6,218.74,312.6"/>
	<path id="XMLID_76_" class="st1" d="M6.97,230.68c0,0,16.07,21.33,33.85,35.41c0,0,6.68,5.69,13.94-0.71
		c7.25-6.54,36.98-33.56,36.98-33.56s11.24-11.09,23.75-0.14c0,0,26.31,23.32,40.68,42.95c0,0,0.85,0.71,0.14,1.99
		c-0.71,1.28-2.13,4.69-2.13,4.69s-15.79-20.48-33.99-35.56c0,0-7.11-5.4-13.23,0.28c-6.12,5.69-34.99,32.14-39.68,35.56
		c-4.55,3.41-12.23,6.83-23.04-2.7c-8.39-7.54-30.44-28.3-39.11-41.39c0,0-0.85-0.71-0.14-2.13C5.69,233.67,6.97,230.68,6.97,230.68
		"/>
	<path id="XMLID_77_" class="st0" d="M10.24,224.28l9.24,10.1c0,0,1.14,1.42,3.27-0.43S53.2,204.52,64,196.84
		c6.12-4.41,12.8-7.25,20.2-7.82c5.55-0.43,11.52,0.14,17.92,3.13c6.97,3.13,17.49,11.66,27.31,21.9
		c6.97,7.25,13.94,15.22,19.77,23.04c3.98,5.26,7.68,10.52,10.67,15.22c0,0,0-6.4-2.84-11.8c0,0-11.52-22.19-34.13-42.95
		c-2.28-1.99-21.48-21.33-40.11-20.91c0,0-17.49-1-33.28,12.09C46.8,190.72,18.92,214.76,10.24,224.28"/>
	<path id="XMLID_78_" class="st0" d="M30.01,245.62l10.38,10.1c0,0,2.42,1.85,5.12-0.71c0,0,9.96-9.81,18.63-17.64
		c8.11-7.4,16.21-15.08,19.34-17.21c0,0,13.08-13.65,29.87-0.43c0,0,22.76,17.92,45.23,48.5l0.71-3.56c0,0,0.85-2.99-1.14-5.83
		c0,0-17.49-25.88-39.11-44.52c0,0-10.81-11.38-24.46-14.22c0,0-11.38-2.7-22.19,5.83c-5.26,4.12-16.78,14.93-26.31,24.04
		C37.12,238.22,30.01,245.62,30.01,245.62"/>
	<path id="XMLID_79_" class="st0" d="M150.62,287.72l-9.24-10.1c0,0-1.14-1.42-3.27,0.43s-30.44,29.44-41.24,37.12
		c-6.26,4.41-12.8,7.25-20.2,7.82c-5.55,0.43-11.52-0.14-17.92-3.13c-6.97-3.13-17.49-11.66-27.31-21.9
		c-6.97-7.25-13.94-15.22-19.77-23.04C7.68,269.65,3.99,264.39,1,259.7c0,0,0,6.4,2.84,11.8c0,0,11.52,22.19,34.13,42.95
		c2.13,1.99,21.48,21.33,40.11,20.91c0,0,17.49,1,33.28-12.09C114.07,321.28,141.94,297.24,150.62,287.72"/>
	<path id="XMLID_80_" class="st0" d="M130.85,266.38l-10.38-10.1c0,0-2.42-1.85-5.12,0.71c0,0-9.96,9.81-18.63,17.64
		c-8.11,7.4-16.21,15.08-19.34,17.21c0,0-13.08,13.65-29.87,0.43c0,0-22.76-17.92-45.23-48.5l-0.71,3.56c0,0-0.85,2.99,1.14,5.83
		c0,0,17.49,25.88,39.11,44.52c0,0,10.81,11.38,24.6,14.22c0,0,11.38,2.7,22.19-5.83c5.26-4.12,16.78-14.93,26.45-24.04
		C123.88,273.78,130.85,266.38,130.85,266.38"/>
</g>
</svg>
