<?xml version="1.0" encoding="utf-8"?>
<!-- Generator: Adobe Illustrator 24.3.0, SVG Export Plug-In . SVG Version: 6.00 Build 0)  -->
<svg version="1.1" id="Layer_1" xmlns="http://www.w3.org/2000/svg" xmlns:xlink="http://www.w3.org/1999/xlink" x="0px" y="0px"
	 viewBox="0 0 512 512" style="enable-background:new 0 0 512 512;" xml:space="preserve">
<style type="text/css">
	.st0{fill:#02489D;}
</style>
<g id="XMLID_1_">
	<path id="XMLID_2_" class="st0" d="M91.67,209.4c0,0-2.52-2.8-5.89-2.8c0,0-7.29,0-12.34,15.85c0,0-4.21,13.88-4.21,34.36
		c0,0,0,19.35,3.93,32.95c0,0,3.93,13.88,9.82,13.88c0,0,4.07,0,7.43-7.57c0,0,3.37-7.57,4.91-19.91l10.8-2.66c0,0-2.8,23-11.5,38
		c0,0-8.97,15.01-20.19,15.01c0,0-13.6,0-23.14-20.33c0,0-9.54-20.33-9.54-49.08c0,0,0-28.75,9.54-49.36c0,0,9.54-20.47,23.14-20.47
		c0,0,13.6,0,23.28,20.75L91.67,209.4"/>
	<path id="XMLID_3_" class="st0" d="M129.81,237.03c0,0-18.65,15.43-48.52,23c0,0-29.87,7.43-53.71,2.52c0,0-23.7-5.05-27.35-19.63
		c0,0-2.94-12.06,10.1-25.52c0,0,12.9-13.32,36.18-22.16l1.54,6.03c0,0-13.6,5.75-21.04,13.04c0,0-7.71,7.71-6.03,14.3
		c0,0,2.24,8.41,18.09,10.94c0,0,15.85,2.38,36.32-2.66c0,0,20.33-5.05,33.38-14.72c0,0,12.76-9.82,10.66-18.23
		c0,0-1.82-7.29-14.86-10.52l-1.96-7.71c0,0,16.83,0.7,28.05,6.17c0,0,11.5,5.61,13.88,15.15
		C144.67,207.16,148.46,221.6,129.81,237.03"/>
	<path id="XMLID_4_" class="st0" d="M236.81,204.49v0.14l0.7,0.28l0.84-0.28l0.42-0.28l0.84,0.14c0,0,1.12,0.28,1.96,0h0.28
		l-4.49-0.56L236.81,204.49"/>
	<path id="XMLID_5_" class="st0" d="M208.48,188.93c-0.28,0.28-0.7,0.42-0.7,0.42l1.12,2.66h-0.84l0.84,2.66
		c0.56,2.94,0.56,8.83,0.56,8.83l-0.42,1.54l-0.42,1.68l0.28,2.94c-0.14,1.12-1.4,2.52-1.4,2.52v1.4c-5.19,1.96-6.03,2.94-6.03,2.94
		l-2.8,0.84c-1.26,0.84-3.93,1.82-3.93,1.82c-1.68,1.68-3.51,1.96-3.51,1.96l-0.28,0.14h-0.28v0.14h-0.56c0.98-1.96,0-4.07,0-4.07
		l-0.7-1.12l-0.7-2.66c-0.7-2.1-1.12-2.38-1.12-2.38l-0.84,1.26l-0.7,1.68h-0.56l-1.12,2.94l-1.12,2.66l-1.4,3.93
		c0.14,0.42-1.68,3.93-1.68,3.93l-0.7,0.7c0,2.52-1.12,3.23-1.12,3.23l-0.7,1.82c-0.56,1.4-0.7,1.12-0.7,1.12
		c0.14,0.7-0.42,4.49-0.42,4.49c-0.28,3.79,0.98,4.49,0.98,4.49c0.56,0.84,0.28,1.12,0.28,1.12l1.4,2.66l0.42-0.14l0.56,0.84
		c0.84,2.1,2.8,1.54,2.8,1.54l3.37-0.98l0.7,3.09c0.42,1.96,1.12,2.52,1.12,2.52l2.66,0.56l2.66,0.28l2.66-1.12l5.89-1.4
		c3.79-0.84,5.75-1.82,5.75-1.82c1.54,2.94,1.26,5.19,1.26,5.19l-0.28,4.63l0.56,1.96l0.42,1.96l0.14,8.69l0.84,2.66l-0.42,1.12
		v3.23l0.84,2.66l0.28,3.09h0.56l-0.28-2.8l0.98,0.14l0.14,1.4l0.28-0.14l-0.14-1.68c-0.98-0.42-0.98-2.1-0.98-2.1
		c0-1.68,0.7-2.66,0.7-2.66c0.56,0.14,1.4,3.23,1.4,3.23c0.7,2.24,0.84,3.65,0.84,3.65h1.96v0.84l-0.56-0.42
		c-0.84,0.56-1.12,3.37-1.12,3.37c-0.14,2.94,0.42,2.94,0.42,2.94c0.28,0,1.68-1.12,1.68-1.12l-0.42,0.56v0.28h0.56l0.28,1.54
		c0.7,0,0.7-3.65,0.7-3.65h0.42l0.7,0.56l0.28-0.28v-3.51l0.7,0.7l0.84-0.84l0.56-1.12c0.14-0.84-0.28-3.23-0.28-3.23
		c0.7-3.65,0.84-5.47,0.84-5.47v-1.96l2.66-5.89c0.7-2.24,0.84-5.89,0.84-5.89l0.28-6.03l1.12-1.54c0.98-0.84,1.12-1.4,1.12-1.4
		l2.1-5.89c1.68-4.21,2.66-4.63,2.66-4.63l5.19-1.12c3.37-1.12,3.23-2.94,3.23-2.94c1.68,0,2.38-7.43,2.38-7.43l1.4-7.43l1.26-2.38
		l0.56-5.75l0.98-5.61c0.28-2.66-1.26-3.93-1.26-3.93c-0.98-0.84-3.79-1.68-3.79-1.68l-0.28,0.14c0.7,0.42,1.96,0.84,1.96,0.84
		c1.26,0.7,1.54,1.68,1.54,1.68c0.42,1.4-0.56,3.79-0.56,3.79c-0.84,2.1-2.1,3.23-2.1,3.23l0.14,0.98
		c-0.42,1.26-2.38,3.65-2.38,3.65l-2.94,3.93l-2.52,1.68c-3.37,0.14-4.49,1.12-4.49,1.12l-0.42-0.42c-0.56-0.84-0.56-4.91-0.56-4.91
		l-0.42-3.23c0.56-0.84,0.56-1.4,0.56-1.4v-1.82c0.84-1.12,6.17-3.09,6.17-3.09c4.77-1.96,5.33-3.93,5.33-3.93l0.28,0.28
		c-0.14,0.84,0.7,0.98,0.7,0.98c0-1.4,0.84-1.4,0.84-1.4l1.96,0.42v-0.28l-3.09-1.4c0,0.7-0.56,0.7-0.56,0.7l-1.12-0.14l-0.14,0.56
		l0.42,0.28l-0.7,0.98h-0.28c0-0.42-1.68-0.42-1.68-0.42l0.56-1.96c-1.54-0.7-1.68,0.7-1.68,0.7h-0.14l-0.28-0.56h-0.28l-0.14,0.42
		h-1.12l-0.7,0.84l-0.84-0.28l0.56-0.56l-0.56-1.12c1.12,0,1.68-1.26,1.68-1.26l-6.73,0.42c0,0.84,1.96,0.7,1.96,0.7
		c2.1-0.28,2.38,0.42,2.38,0.42l-2.1-0.14l-1.96,0.28l-0.28,0.84l-0.56-0.42l-0.56-0.42l-1.4-0.56c-0.84,0.56-1.26,0.42-1.26,0.42
		l-0.84-0.56l-0.84-0.84c-1.12-0.84-5.89-8.97-5.89-8.97C214.65,189.21,208.48,188.93,208.48,188.93z M207.64,222.02l1.12,4.35
		l0.7,2.94c0.56,1.82,0.28,2.94,0.28,2.94l-1.68,2.52l-2.1,2.66c-2.38,1.54-4.21,2.1-4.21,2.1l-4.63,0.7
		c-2.24,0.28-4.77,2.66-4.77,2.66c-2.52,2.1-3.37,2.1-3.37,2.1c-0.42,0.28-0.98,0.42-0.98,0.42c-0.56-1.4,0.56-2.1,0.56-2.1
		c-0.42-0.56,0.28-2.1,0.28-2.1l1.4-1.68l0.98-1.96l0.56-2.38c0.98-0.7,0.84-1.4,0.84-1.4l4.63-5.47l5.75-2.52
		C206.66,224.13,207.64,222.02,207.64,222.02z"/>
	<path id="XMLID_8_" class="st0" d="M300.05,203.93l3.51-1.4l3.65-0.98l3.23-0.42l1.4-0.56l3.65-0.14l3.65,0.14l1.4,0.14l1.54,0.56
		l1.12,1.68l1.26,2.38c0,0-0.7,3.51,0,4.21c0,0-0.56,1.12-0.84,7.99l-0.7,7.43l-0.56,5.33l0.42,7.43c0,0,0,1.4-0.7,3.93
		c0,0,0.84,3.79,0,4.63c0,0,1.82,11.36,1.54,12.06l-0.98,2.38l-0.84,2.38l-0.14,1.4l0.42,0.42l-0.28,1.68l0.14,1.54
		c0,0-0.14,1.12-0.7,1.12l-1.4-0.84l-1.12-1.26v-0.14c0,0-2.38-1.96-3.37-1.4c0,0,0,3.37,2.1,6.73l0.42,0.28c0,0,0.28,1.54,2.8,5.47
		l0.28,0.56l2.1,6.17c0,0,1.54,2.1,7.43,4.91l0.56-0.14v-0.42c0,0,0.56,0,1.82-1.4c0,0,1.68-2.1,1.82-4.49v-4.63l0.56-3.23v-3.37
		l-0.84-2.94c0,0-0.42-2.38,0.56-2.66c0,0,0-4.77-0.42-5.05c0,0,0.84-3.65,0.28-7.99l0.14-3.37v-3.37l-0.42-7.57l-0.14-7.71
		l-0.28-6.87l-0.84-6.45c0,0,0.28-1.96,0.7-2.66c0,0-0.28-1.12,0.14-4.49c0,0-1.12-0.14-0.56-4.35l0.84-5.19c0,0-0.28-1.4-2.66-4.35
		l-3.37-3.65c0,0-2.1-1.12-3.23-0.84l-7.29,1.12c0,0-5.05,0.56-6.45,2.1l-1.82-0.14l-1.96,0.42l-0.28,0.28l-3.37,0.42l-2.66,0.56
		h-0.98l-3.51,1.26l-2.94,1.26l-3.23,1.12c0,0-2.8,2.38-4.21,2.1c0,0-6.17,1.54-8.55,2.94c0,0,0,0.14,1.68,0.56
		c0,0,1.68,0.42,1.82,1.4l1.82,0.56c0,0,4.35,0.7,6.73-0.84c0,0,0.56,0.28,3.65-1.12c0,0,0.7-0.84,2.1-0.84l1.96-1.12L300.05,203.93
		"/>
	<path id="XMLID_9_" class="st0" d="M220.82,287.37l-0.14,3.65c0,0,0.7,0,0.7-1.68C221.38,289.34,221.52,287.79,220.82,287.37"/>
	<path id="XMLID_10_" class="st0" d="M212.83,289.34l0.42,1.54h0.14l0.42-0.84v-1.68h-0.28l-0.14,0.14l0.28-0.84l-1.26-0.7
		C212.55,286.95,212.27,287.79,212.83,289.34"/>
	<path id="XMLID_11_" class="st0" d="M214.65,292l0.14-0.28c0,0,0.28-2.66-0.28-3.23c0,0-0.7,0.7-0.14,3.51H214.65"/>
	<polyline id="XMLID_12_" class="st0" points="212.83,298.31 212.83,308.41 221.24,308.41 221.24,298.31 228.53,298.31 
		228.53,322.57 221.24,322.57 221.24,312.19 212.83,312.19 212.83,322.57 205.4,322.57 205.4,298.31 212.83,298.31 	"/>
	<path id="XMLID_13_" class="st0" d="M187.87,304.06c0,0-2.1,2.1-2.1,6.45v0.28c0,0,0,4.49,1.96,6.59c0,0,2.38,2.1,5.75,2.1
		l4.21-0.42l2.66-0.7v3.65l-2.66,0.84l-4.63,0.28c0,0-6.73,0-10.94-2.94c0,0-4.07-2.94-4.07-8.83v-1.12c0,0,0-5.47,4.21-8.69
		c0,0,4.21-3.37,10.66-3.37l4.63,0.28l2.94,0.7v3.79l-2.66-0.7l-3.65-0.28C194.18,301.82,190.11,301.82,187.87,304.06"/>
	<path id="XMLID_14_" class="st0" d="M315.34,234.64c0,0,0.14,1.54-1.68,3.51l-0.56,0.7l-0.14,0.28l-0.56,1.12l-0.28,1.26
		l-0.84,0.56l-0.28,0.56l0.28,0.14c0,0,0.84,0.28,2.38-0.56l1.4-0.42l1.68-0.14l1.12-0.14l0.7-0.14c0,0,1.68,0.56,2.94-1.4
		l0.28-2.38l-0.28-1.4l-0.42-0.98l-0.56-0.28l-0.84-0.42l-1.96-0.14l-0.28-0.28l-1.82-0.84l-1.4-0.56L315.34,234.64"/>
	<path id="XMLID_15_" class="st0" d="M309.03,207.58l-2.38,0.7l-2.66,0.56l-4.91,1.12l-2.52,1.4l-2.1,0.56c0,0-0.42,0.28-0.84,0.42
		l-1.12,0.14l-0.98,0.28l-3.65,1.68l-1.82,1.12l-1.26,0.28l-0.42,0.28l-0.14,0.14l-0.7,0.84l-1.26,0.7l-1.54,1.12
		c0,0-2.8,0-2.24,2.1h0.56c0,0,0,0.42,3.37,1.82l0.14,1.68c0,0,0.28,1.12,1.12,1.68h3.65l1.12,0.14h1.96c0,0,0.56,0,0.56,0.42
		l0.28,1.82l0.14,1.4l-0.14,2.1l-0.7,1.4l-1.54,0.28l-1.12,0.7l-3.37,1.4l-1.4,1.12l-2.1,1.4l-1.12,1.12l0.14,0.42v0.42l-1.12,0.98
		l0.14,1.12l0.42,0.28l1.26,1.12l1.82,0.28l0.84,1.4l1.12,1.12l1.4,0.28l1.12-0.14l-0.14,0.84c0,0-0.42,0.84,0,0.84l-0.56,1.82
		l-0.7,1.26l-0.28,0.7l-1.68,1.26l-0.84,1.12l-0.84,1.4v0.7l-0.7,1.4l-0.56,0.84v1.12l0.7,1.96l0.84,1.26c0,0,0.56,0.7,0.7,0.56
		c0,0,0,0.14,0.84,0.56c0,0,1.96,0.28,2.94,0l3.65-0.84l2.1-1.12l3.65-1.26l0.84-0.7c0,0,0.56,0,2.66-1.68c0,0,0.42,0.28,1.54-0.84
		c0,0,0,0.14,1.4-0.7l1.26-0.42c0,0,0.7-0.28,1.4-0.7l1.82-0.56l2.38-1.68l1.82-1.54c0,0,0.84-0.56,1.12-1.68l0.42-0.84l0.28-0.42
		h-1.12c0,0-0.7,0-0.28-1.12l0.7-1.12l-2.1-0.14c0,0-1.4,0-1.4-0.56l-3.79,0.28l0.42-1.4l0.14-1.12l0.56-1.4c0,0-0.42,0-0.42-0.84
		l0.56-0.42l0.98-0.14l2.1-3.09l2.38-2.38l0.14-0.7l0.56-1.12v-1.12l-0.28-1.4l-1.4-1.4l-2.66-1.82l-1.12-0.56l-0.42-0.42l-0.84-0.7
		l0.28-0.42c0,0,0-1.12,0.7-2.52l2.66-2.94c0,0,0.7,0,1.96-2.66l0.84-1.12l0.28-1.12l-0.14-1.12l0.28-0.84l-0.14-1.26l-1.4-2.38
		l-0.7-0.84C310.85,208.7,310.85,207.58,309.03,207.58"/>
	<path id="XMLID_16_" class="st0" d="M286.59,269.28l-2.1,0.56h-3.23l-1.4,0.28l-1.68-0.14l1.68,3.79c0,0,1.68,3.23,2.24,3.23
		l1.68,0.42l2.52-0.7c0,0,1.82-0.42,2.1-0.84h0.56c0,0,2.38-0.56,2.94-1.4l2.94-0.7l2.66-1.26l1.26-0.42l1.96-0.98l2.1-1.4
		l5.61-3.93c0,0,2.24-1.4,7.43-3.93l1.26-1.12v-0.28h-0.84c0,0-0.7,0.56-3.65,1.26l-2.66,1.12l-0.84,0.14l-2.38,0.84l-2.8,0.42
		l-3.79,1.68l-1.96,0.42l-1.96,0.84l-1.12,0.14l-2.66,0.56c0,0-2.1,1.12-2.66,1.26l-1.26-0.28L286.59,269.28"/>
	<path id="XMLID_17_" class="st0" d="M273.27,211.37l-0.84,2.38c0,0-0.42,1.4-0.28,2.94l0.28,1.12v3.79l0.28,2.38l-0.42,1.68
		l-0.14,2.94l-0.56,1.26l-0.84,3.37l0.28,0.7v2.94l-0.42,1.68v1.26l-0.28,2.52l-0.42,1.82l-0.42,5.75h-0.14l-0.28,1.68l-0.7,1.4
		c0,0-0.28,2.1,0.28,3.37l0.14,1.68l0.14,2.38c0,0,0.14,1.26-0.42,1.96l-0.28,2.1c0,0-0.28,4.91,2.66,7.43c0,0,0.98,0.84,1.82,0.7
		l0.7-0.84c0,0,1.12-1.4,1.12-4.07l-0.42-4.35l-0.28-1.26l0.56-4.07c0,0,0-1.82,0.28-2.52c0,0-1.4-0.84-0.42-5.19l0.14-2.52
		l0.14-1.68c0,0,0.28-1.4,0.42-1.4l0.28-1.4l0.28-0.98l1.4-6.45l1.26-3.65v-0.7l-0.56-0.98v-1.4l0.42-0.98l0.42-2.1h-0.14l0.14-1.68
		l-0.14-1.68c0,0-0.7,0-0.7-4.49l-0.84-2.66l-0.7-0.84l-0.84-1.68l-0.84-2.52l-0.7-0.7L273.27,211.37"/>
	<polyline id="XMLID_18_" class="st0" points="240.45,206.88 240.59,206.32 240.17,205.62 240.17,206.6 240.45,206.88 	"/>
	<polyline id="XMLID_19_" class="st0" points="242,206.04 240.73,205.62 240.73,206.04 242,206.04 	"/>
	<polyline id="XMLID_20_" class="st0" points="275.65,298.31 275.65,322.57 272.57,322.57 256.16,307.43 256.16,322.57 
		250.83,322.57 250.83,298.31 254.9,298.31 270.6,312.75 270.6,298.31 275.65,298.31 	"/>
	<polyline id="XMLID_21_" class="st0" points="243.68,298.31 243.68,322.57 236.25,322.57 236.25,298.31 243.68,298.31 	"/>
	<path id="XMLID_22_" class="st0" d="M289.68,298.31l-11.08,24.26h6.03l2.38-5.75h10.94l2.38,5.75h7.71l-11.5-24.26H289.68z
		 M292.34,304.34l4.21,8.97h-7.99L292.34,304.34z"/>
	<polyline id="XMLID_25_" class="st0" points="319.41,298.31 341.28,298.31 341.28,301.82 334.13,301.82 334.13,322.57 
		326.7,322.57 326.7,301.82 319.41,301.82 319.41,298.31 	"/>
	<path id="XMLID_26_" class="st0" d="M479.13,202.25l0.98-1.26l0.98,0.14l0.7-0.14l2.94-0.28c0,0,0.14,0.56-2.66,0.56l-1.68,0.7
		l0.98,0.56l3.09,0.42c0,0,0.98,0.14,2.38,1.26l1.82,1.96l-1.4,1.54l-1.12,0.56l-1.12,0.14l-4.63,0.98l-3.65,0.28l-2.94,0.84
		l-6.03,0.7l-2.52,0.84l-1.54,0.84h-0.28l-0.28-0.56l-0.7,0.7c0,0-0.28,0.56-0.28,1.4c0,0,0,1.12,0.7,1.68l1.68,0.42
		c0,0,1.12,0.56,1.68,0.56l3.37-0.98l3.65-0.7l3.37-0.84l5.61-0.84l17.67-0.42l4.49-0.7l1.4,0.28l1.26,0.14c0,0,1.68-0.84,2.1-0.56
		l0.14-0.84v-1.82l1.12-0.7c0,0,2.1-1.4,1.4-2.52l-2.94-0.84l-3.23,0.14h-4.63c0,0-1.68,0-1.68-0.84l0.14-1.26
		c0,0-0.56-1.68-0.28-2.1l-0.14-2.8l-1.82-1.4l-1.12-0.14l-1.12-0.98l-5.05-2.1l-1.96-0.56l-1.12,0.28l-1.68,2.94l-0.14,0.28
		l-0.98-0.28l-1.12,0.84l0.14,0.14l-0.7,0.42l-2.1,1.54c0,0-1.26,1.12-0.28,0.84h0.28l-0.56,0.42l-2.66,0.84l-0.28,0.84l0.7,0.28
		L479.13,202.25"/>
	<path id="XMLID_27_" class="st0" d="M383.49,201.27l-0.28,2.94c0,0-1.54,2.38-1.96,3.65c0,0-1.26,9.68-2.1,10.66l-1.54,1.4
		l-1.68,0.84l-1.96,1.26l-4.63,3.37l-0.14,0.14l1.96,0.28l1.12,1.12l2.1-0.7l2.38-0.28l0.14,1.82l0.42,0.7l-1.54,2.38
		c0,0,0,2.1-7.29,7.01c0,0-0.28-0.84,0-3.65l0.56-3.65l-0.14-1.54l-1.12-1.96c0,0-1.26-1.68-1.4-2.38c0,0-1.54-0.28-1.68-1.68
		l-0.84-1.68c0,0-0.28,0-0.7,1.68l-0.84,1.96l-0.28,0.98l-0.28,0.14c0,0,0,0.84-1.12,2.24l-1.12,1.96c0,0-0.28,1.12,0,6.45
		l-0.42,5.33l-0.84,5.19l-1.12,3.51c0,0-0.84,1.82,0,3.79c0,0,0.42,0.84,2.1,1.82c0,0,1.68,0.84,2.66,0.98l1.12,1.12
		c0,0,0.56,1.4,0.98,1.54l2.66,1.96l2.66,0.42l2.1,0.84l1.54,6.17c0,0,1.4,5.33,3.09,5.89h0.14c0,0,0.14,0.56,1.12,1.26l1.4,0.84
		c0,0,2.38,1.68,4.35,2.1l4.77,0.7l4.21,0.14l4.77,0.42c0,0,4.07-0.42,4.49-1.26l4.21-0.56c0,0,4.49-1.12,4.21-1.54l0.56-0.14
		l8.13-2.1l1.96-0.84h-0.42l0.42-0.84h0.28l-0.14-0.56h0.28l0.28,0.28l0.14-0.28l-0.14-0.28l0.42-0.56l-0.42,0.14l0.7-1.12
		l0.98-0.98h0.14v0.56l0.7-0.84h0.14v0.14l-0.42,0.28l0.14,0.28c0,0-0.14,0.28,0.14,0.14l0.14-0.56l0.42-0.28l0.14,0.14l0.42-0.56
		l0.28-0.14v-0.84l-0.56-0.28l-0.28,0.42v-0.7l-0.28-0.14v0.28l-0.28-0.14v-0.42l-0.42-0.42l0.7-0.42l-0.14-0.28l-0.7,0.7l0.28-0.84
		h0.42l0.14-0.28l-1.12-0.14l-0.42,0.28l-0.14-0.14l0.14-0.7l-0.84-0.14l0.56-0.28l-0.28-0.28v-0.28l0.42,0.14v-0.14l-0.56-0.56
		l-0.14,0.14l-0.42-0.56l-0.14-0.14l-0.56,0.14l-0.14-0.28v0.42h0.42v0.84h-0.14l-0.56-1.12l-0.28-0.14l-0.28,0.14l0.56-0.42h0.14
		l-0.98-0.14c0,0-0.56,0-0.7,0.42l-0.98,0.56l-1.54,1.12l-1.68,0.42l-1.68,0.7l-5.33,0.98l-4.49,1.4l-1.68,0.28l-8.69,0.84
		l-2.24-0.84c0,0-0.42,0-0.7-0.42l-0.28-0.98c0,0-1.82-3.65-1.54-4.63l2.52-3.37l1.4-1.12c0,0,0.84-0.7,2.38-0.56l1.54-0.28
		l1.96-0.28l1.12-0.7l1.54-0.28l1.54-0.42l1.4-0.42l6.17-0.84l0.84-0.7l0.7-1.12l1.26-1.82c0,0,1.4-1.12,1.4-2.1v-1.4l0.42-1.68
		l-1.4-3.23l-1.4-2.94l2.66-6.73l0.42-1.68c0,0,0.42-1.4,0.84-1.4l0.42-1.96l0.42-2.1c0,0,0.56-1.12,0.42-1.96l-0.28-1.68l0.28-1.12
		l-0.42-1.4c0,0-0.56-0.84-0.56-1.4l-1.4-1.96l-1.12-3.09c0,0-0.56-1.4-2.8-2.24l-0.42,0.28l-2.1-0.84c0,0-1.4-0.84-2.66-0.56
		l-2.8-0.42l-4.91,2.38l-5.47,2.94h-0.84l1.12-7.01c0,0,0.28-3.65-3.65-5.47l-2.1-1.12L383.49,201.27z M400.32,217.82l4.07,0.84
		l-0.14,0.56l0.84,1.12v0.84c0,0,0,0.7-1.12,1.82h-1.26h-0.28c0,0-4.21,2.94-6.73,3.51l-2.1,0.28h-0.98c0,0-1.12,0.28-2.24,0
		c0,0-1.68-0.28-1.96-1.12l0.28-1.96c0,0,0.42-1.4,0.84-1.54c0,0,0-0.7,1.26-1.26l1.26-0.56c0,0,1.12-0.56,3.09-1.12l1.54-0.84
		l2.1-0.56L400.32,217.82z M401.16,233.24l0.28,0.28c0,0,0.42,0.42,0.14,0.98l-0.84,4.35l-0.7,1.12c0,0-0.7,0.98-4.35,2.66
		c0,0-3.65,2.38-5.75,0.84l-0.7-1.96l0.42-1.4c0,0-0.14-1.26,0.14-1.96l1.12-1.4l2.94-1.68l3.93-1.4L401.16,233.24z M371.71,242.64
		l1.82,0.7c0,0,0.84,0.84,0.28,3.23l-1.12,3.37l-0.14,0.7l-0.84,1.26l-1.96,0.42c0,0-0.56,0-2.38,0.98c0,0-0.84,0.56-1.82,0.84
		l-0.7,0.7l-0.14-0.14l0.7-2.24l-0.28-1.4l0.42-1.26l0.14-1.26l1.12-2.94l0.42-1.4h0.14c0,0,0.98,0,2.38-0.84l1.96-0.56
		L371.71,242.64L371.71,242.64z"/>
	<path id="XMLID_32_" class="st0" d="M450.1,211.37v0.84c0,0-1.12,3.23-1.12,4.77l-1.82,2.8l-0.28,0.98l-0.56,1.12l-1.54,3.23
		l-2.38,5.33l-1.4,1.68l-2.1,3.23l-0.7,2.1l-0.7,2.1l0.14,2.1l0.14,3.23c0,0,0.42,0.28,0.7,0.42l0.84,1.4l0.14,2.94l-0.14,2.94
		l0.42-0.7l0.42-1.12v-0.42h0.14l0.14,0.14l-0.28,0.56l0.14,0.28h0.28l0.42-0.84l0.84-2.52l1.4-1.68l0.84-0.56l5.61-5.47
		c0,0,1.68-0.56,2.66,1.68l0.28,2.1l0.56,4.07v5.19l-0.7,2.94l-0.7,5.33l-0.84,2.38l-1.12,6.31l-0.14,6.73c0,0,0,2.94,2.66,3.23
		l1.26-1.4c0,0,1.96,0.14,1.12-0.98v-0.84l1.12-0.84h0.98l1.4-2.1l0.56-4.21l0.84-8.97l0.28-3.09l0.56-3.09l0.98-12.06
		c0,0-0.42-2.66-0.28-3.79l0.84-1.96c0,0,0.42-0.84,0.42-2.94l-0.28-0.98l-0.84-0.7l-0.84-0.84c0,0-0.7-0.28-1.4-0.7l-2.66-1.12
		l-1.68,0.42l0.42-1.68l0.56-1.4l0.14-2.66l0.42-1.4c0,0,0.14-1.82-0.84-4.21l-1.96-3.79l-0.14-1.12l-0.84-2.38l-2.1-1.82
		L450.1,211.37"/>
	<polyline id="XMLID_33_" class="st0" points="377.46,298.31 377.46,319.06 389.66,319.06 389.66,322.57 370.17,322.57 
		370.17,298.31 377.46,298.31 	"/>
	<polyline id="XMLID_34_" class="st0" points="352.08,301.82 352.08,308.55 361.76,308.55 361.76,312.19 352.08,312.19 
		352.08,319.06 365.4,319.06 365.4,322.57 344.79,322.57 344.79,298.31 364.56,298.31 364.56,301.82 352.08,301.82 	"/>
	<polyline id="XMLID_35_" class="st0" points="394.57,298.31 414.48,298.31 414.48,301.82 401.86,301.82 401.86,308.55 
		411.54,308.55 411.54,312.19 401.86,312.19 401.86,319.06 415.47,319.06 415.47,322.57 394.57,322.57 394.57,298.31 	"/>
	<path id="XMLID_36_" class="st0" d="M428.37,304.06c0,0-2.24,2.38-2.24,6.45v0.28c0,0,0,4.49,1.96,6.59c0,0,2.52,2.1,5.75,2.1
		l4.21-0.42l2.66-0.7v3.65l-2.66,0.84l-4.63,0.28c0,0-6.73,0-10.8-2.94c0,0-4.21-2.94-4.21-8.83v-1.12c0,0,0-5.47,4.21-8.69
		c0,0,4.21-3.37,10.8-3.37l4.49,0.28l2.94,0.7v3.79l-2.38-0.7l-3.65-0.28C434.68,301.82,430.75,301.82,428.37,304.06"/>
	<path id="XMLID_37_" class="st0" d="M457.68,297.89c0,0-6.73,0-10.1,3.37c0,0-3.65,3.37-3.65,8.55v1.4c0,0,0,5.61,3.93,8.69
		c0,0,3.51,2.94,9.68,2.94c0,0,6.17,0,9.68-2.94c0,0,3.93-3.23,3.93-8.69v-1.4c0,0,0-5.19-3.65-8.55
		C467.63,301.26,464.41,297.89,457.68,297.89z M457.68,301.54c0,0,3.93,0,4.91,1.96c0,0,1.12,2.38,1.12,6.73v0.7
		c0,0,0,4.35-1.4,6.73c0,0-1.4,2.1-4.63,2.1c0,0-3.79,0-4.91-1.96c0,0-1.12-1.68-1.12-6.73v-0.7c0,0,0-4.91,1.26-6.73
		C452.91,303.36,453.89,301.54,457.68,301.54z"/>
	<path id="XMLID_40_" class="st0" d="M496.94,217.96h-1.12h-1.68c0,0-1.96,0-2.66-0.56h-3.37l-2.94,0.84l-2.66,1.12
		c0,0-0.56,0.14-0.84,0.84c0,0-0.42,0.84,0.14,1.96c0,0,0.7,0.84,1.68,1.12l3.37,1.82l0.84,0.84l4.77,2.1l2.38,0.56h3.23l1.12,0.42
		c0,0,0.56,0.28,0.98,0c0,0,0.7-0.42,1.68-2.66l0.7-0.84v-1.12l0.14-1.26l-1.12-1.12l-0.7-1.82c0,0-1.12-0.42-1.68-0.7l-1.12-1.12
		L496.94,217.96"/>
	<path id="XMLID_41_" class="st0" d="M483.76,231.7l-5.47,0.84l-0.14,0.7c0,0-0.28,0.56,0,1.12l0.84,1.82l1.4,1.68l2.52,2.1
		c0,0,0.7,0.7,1.96,0.98l2.66,0.14l2.38,0.42c0,0,1.12,0.14,2.94,1.12l1.96-0.28h1.4l1.4-0.7c0,0,1.4-0.28,1.54-0.42
		c0,0,0.7-0.28,1.4-1.4l0.84-2.1v-0.84l0.14-0.7c0,0,0.14-0.56,0.84-0.84l0.84-0.56v-1.96c0,0,0-0.28-1.4-0.56l-1.68-0.14
		l-1.96,0.28l-5.19-1.12l-2.94-0.14L483.76,231.7"/>
	<path id="XMLID_42_" class="st0" d="M471,254.28l0.84,3.65c0,0-0.42,2.1-0.14,4.07l0.14,4.35l-0.14,3.23l1.4,6.03l0.28,0.7v2.24
		c0,0,0.28,1.12,1.26,1.68l1.68,0.42l2.1,0.98l0.7,0.84c0,0,0.42,0.56,0.84,0.42c0,0,0.42-0.14,0.42-1.4l1.12-1.96l0.14-2.1
		l0.56-2.1l0.42-1.54l0.84-7.43l-0.42-1.12l-0.7-1.12l0.14-1.4v-1.4l0.28-0.14l4.07,0.14l1.54-1.68c0,0,2.24-2.1,3.65-2.66l0.7,0.98
		c0,0,0.56,1.4,0.14,3.65l-3.09,3.51l-1.96,1.96c0,0-1.12,0.98-1.4,2.1l-0.7,0.42l-0.14,0.84l-0.14,2.52c0,0,0,2.1,0.28,2.66
		l1.12,0.84l1.4,0.56l1.12,0.84l4.35,0.42l4.49-0.84l2.66,0.56l3.37-0.14l1.4-0.84l1.12-0.42l0.98-1.12v-1.4l0.28-3.37l-1.26-0.7
		l-0.28-0.14l-1.4-1.12l-0.14-1.12l2.1-5.47l0.14-2.94c0,0-0.42-0.7,0.14-2.1v-2.8l-1.54-1.68l-1.68-2.38l-1.96-1.54l-0.84-0.7
		l-2.1-0.56l-2.24,0.14l-1.12-0.56l-4.21,2.94l-8.55,4.21l-1.12,0.42l-1.12,0.28c0,0-1.12,0-1.54-0.42l-0.84-1.12l-0.84-0.84
		l-0.56-1.4l-1.68-0.7l-1.68-0.7c0,0-0.84-0.42-1.12-1.12l-0.42-0.56l-0.7,0.28l-0.56,3.37L471,254.28"/>
	<polyline id="XMLID_43_" class="st0" points="480.11,322.57 475.21,322.57 475.21,298.31 480.53,298.31 492.87,315.98 
		505.5,298.31 510.26,298.31 510.26,322.57 503.53,322.57 503.53,308.69 493.58,322.57 489.65,322.57 480.11,308.69 480.11,322.57 	
		"/>
</g>
</svg>
