<?xml version="1.0" encoding="utf-8"?>
<!-- Generator: Adobe Illustrator 24.3.0, SVG Export Plug-In . SVG Version: 6.00 Build 0)  -->
<svg version="1.1" id="Layer_1" xmlns="http://www.w3.org/2000/svg" xmlns:xlink="http://www.w3.org/1999/xlink" x="0px" y="0px"
	 viewBox="0 0 512 512" style="enable-background:new 0 0 512 512;" xml:space="preserve">
<style type="text/css">
	.st0{fill:#D91920;}
	.st1{fill:#231F20;}
</style>
<g id="XMLID_1_">
	<path id="XMLID_2_" class="st0" d="M416.84,297.56c-4.77,4.77-12.63,4.77-17.54,0c-4.63-4.63-8.7-8.84-8.7-8.84l13.19-13.19
		l-16.7-16.7l-13.19,13.33l-13.33-13.33l-16.7,16.7l13.33,13.19c0,0-4.07,4.07-8.7,8.84c-4.91,4.77-12.77,4.77-17.54,0
		s-4.77-12.63,0-17.54c5.05-5.05,42.81-43.09,42.81-43.09s38.03,38.03,43.09,43.09C421.75,284.93,421.75,292.79,416.84,297.56z
		 M330.95,160.72c-4.77-4.77-4.77-12.63,0-17.54c4.77-4.91,12.63-4.91,17.54,0c4.63,4.63,8.7,8.7,8.7,8.7l-13.33,13.33l16.7,16.7
		l13.33-13.19l13.19,13.19l16.7-16.7l-13.19-13.33c0,0,4.07-4.07,8.7-8.7c4.91-4.91,12.63-4.91,17.54,0
		c4.91,4.77,4.91,12.63,0,17.54c-5.05,5.05-43.09,43.09-43.09,43.09S336,165.78,330.95,160.72z M390.59,220.37
		c0,0,39.02-39.02,42.95-42.95c14.03-14.03,14.03-36.77,0-50.95c-14.03-14.03-36.77-14.03-50.81,0c-5.47,5.47-8.7,8.7-8.7,8.7
		s-3.23-3.23-8.7-8.7c-14.03-14.03-36.77-14.03-50.95,0c-14.03,14.03-14.03,36.77,0,50.95c3.93,3.93,42.95,42.95,42.95,42.95
		s-39.02,39.02-42.95,42.95c-14.03,14.03-14.03,36.77,0,50.95c14.03,14.03,36.77,14.03,50.95,0c5.47-5.47,8.7-8.84,8.7-8.84
		s3.23,3.23,8.7,8.84c14.04,14.03,36.77,14.03,50.81,0s14.03-36.77,0-50.95C429.61,259.53,390.59,220.37,390.59,220.37z
		 M484.91,229.21c-4.77,4.77-12.63,4.77-17.54,0c-3.93-3.93-8.7-8.7-8.7-8.7s4.77-4.77,8.7-8.7c4.91-4.91,12.77-4.91,17.54,0
		c2.39,2.39,3.65,5.61,3.65,8.7S487.3,226.83,484.91,229.21z M501.61,194.97c-14.03-14.03-36.77-14.03-50.95,0
		c-4.07,4.07-8.7,8.7-8.7,8.7l-13.19-13.19l-16.7,16.7l13.33,13.33l-13.33,13.19l16.56,16.7l13.19-13.19c0,0,4.77,4.77,8.7,8.84
		c14.03,14.03,36.77,14.03,50.95,0c7.02-7.02,10.53-16.28,10.53-25.4C512.14,211.25,508.63,201.99,501.61,194.97L501.61,194.97z
		 M280,229.21c-4.91,4.77-12.77,4.77-17.54,0c-2.39-2.39-3.65-5.61-3.65-8.7c0-3.23,1.26-6.32,3.65-8.7
		c4.77-4.91,12.63-4.91,17.54,0c3.93,3.93,8.7,8.7,8.7,8.7S283.93,225.28,280,229.21z M318.74,250.41l16.7-16.7l-13.33-13.19
		l13.33-13.33l-16.7-16.7l-13.19,13.19c0,0-4.77-4.77-8.7-8.7c-14.03-14.03-36.91-14.03-50.95,0c-7.02,7.02-10.53,16.28-10.53,25.4
		c0,9.26,3.51,18.39,10.53,25.4c14.03,14.03,36.77,14.03,50.95,0c4.07-4.07,8.7-8.84,8.7-8.84L318.74,250.41"/>
	<path id="XMLID_10_" class="st1" d="M182.46,325.35c-2.25,2.39-5.05,3.51-8.56,3.51c-3.37,0-6.04-1.26-8.28-3.51
		c-2.11-2.39-3.23-5.47-3.23-9.26c0-3.51,1.12-6.46,3.23-8.84c2.25-2.39,4.91-3.51,8.28-3.51c3.51,0,6.32,1.12,8.56,3.51
		s3.23,5.47,3.23,9.12C185.68,320.02,184.7,322.97,182.46,325.35z M185.12,296.44v4.63c-3.79-3.79-8.14-5.61-13.05-5.61
		c-5.61,0-10.25,1.96-14.03,5.89c-3.79,3.93-5.61,8.98-5.61,14.88c0,6.04,1.82,11.09,5.61,15.02c3.79,3.93,8.56,5.89,14.32,5.89
		c4.63,0,8.84-1.68,12.77-5.33v4.21h9.68v-39.58L185.12,296.44"/>
	<path id="XMLID_13_" class="st1" d="M51.65,278.48h10.11v22.46c0,0,3.79-5.19,11.51-5.19c7.3,0,13.75,4.77,13.75,16.98v23.58H77.9
		v-24.14c0-4.21-1.68-9.4-7.58-9.4c-5.61,0-8.56,4.21-8.56,9.4v24.14H51.65L51.65,278.48"/>
	<path id="XMLID_14_" class="st1" d="M48.14,326.34c-2.25,3.23-5.05,5.75-8.42,7.58c-4.07,2.25-8.56,3.51-13.47,3.51
		c-7.3,0-13.47-2.53-18.53-7.72C2.53,324.65,0,318.48,0,311.18c0-7.86,2.95-14.32,8.7-19.51c5.05-4.63,10.95-6.88,17.54-6.88
		c4.77,0,9.26,1.12,13.47,3.51c3.51,1.96,6.32,4.49,8.56,7.58l-8.56,6.18c-0.56-1.54-1.54-2.81-2.53-3.93
		c-2.81-3.37-6.46-4.91-10.95-4.91c-4.35,0-8,1.68-10.81,5.05c-2.95,3.37-4.35,7.58-4.35,12.91c0,5.47,1.4,9.68,4.35,13.05
		c2.81,3.37,6.46,5.05,10.81,5.05s8-1.68,10.95-5.05c1.12-1.26,1.96-2.53,2.53-4.07C39.44,320.16,45.9,324.79,48.14,326.34"/>
	<path id="XMLID_15_" class="st1" d="M134.04,295.74c-9.54-0.14-12.63,5.19-12.63,5.19l-0.42-4.63h-8.56v39.86h9.96v-24.14
		c0-5.05,2.95-9.4,8.56-9.4c5.89,0,7.72,5.33,7.72,9.4v24.14h9.26v-23.44C147.79,300.51,141.19,295.88,134.04,295.74"/>
	<rect id="XMLID_16_" x="94.74" y="296.16" class="st0" width="9.4" height="40"/>
	<path id="XMLID_17_" class="st0" d="M99.23,292.09c-3.23,0-5.47-2.39-5.47-5.33c0-3.09,2.25-5.33,5.47-5.33
		c3.37,0,5.47,2.25,5.47,5.33C104.84,289.7,102.74,292.09,99.23,292.09L99.23,292.09"/>
	<path id="XMLID_18_" class="st0" d="M99.23,351.04c-3.23,0-5.47-2.39-5.47-5.19c0-3.09,2.25-5.33,5.47-5.33
		c3.37,0,5.47,2.39,5.47,5.33C104.84,348.65,102.74,351.04,99.23,351.04L99.23,351.04"/>
	<path id="XMLID_19_" class="st1" d="M241.4,354.83c-5.89-0.14-10.11,2.39-13.61,6.18c-2.39-4.35-6.32-6.04-10.39-6.18
		c-8.42-0.14-12.07,5.19-12.07,5.19l-0.28-4.77h-9.12v39.86h10.11v-24c0-5.05,2.67-9.26,7.86-9.26c5.47,0,7.02,5.19,7.02,9.4v24
		h9.12v-23.58l0,0c0-6.74,3.09-9.82,7.72-9.82c5.47,0,7.02,5.19,7.02,9.4v24h9.12v-23.3C254.03,359.6,248,354.97,241.4,354.83"/>
	<rect id="XMLID_20_" x="94.74" y="355.25" class="st0" width="9.4" height="39.86"/>
	<path id="XMLID_21_" class="st1" d="M171.09,361.28c-3.23,0-5.89,1.26-8,3.93c-2.11,2.67-3.23,5.89-3.23,9.96s1.12,7.58,3.23,10.11
		c2.11,2.53,4.77,3.93,8,3.93c3.23,0,5.89-1.26,8-3.93s3.23-6.04,3.23-10.11c0-4.07-0.98-7.44-3.09-10.11
		C176.98,362.55,174.32,361.28,171.09,361.28z M170.39,354.27c3.79,0,7.3,0.98,10.53,2.81c3.23,1.82,5.89,4.49,7.72,7.58
		c1.82,3.23,2.81,6.74,2.81,10.39c0,3.79-0.98,7.3-2.81,10.53s-4.35,5.75-7.58,7.58c-3.23,1.82-6.74,2.81-10.53,2.81
		c-5.75,0-10.53-1.96-14.6-6.04c-4.07-4.07-6.04-8.98-6.04-14.74c0-6.18,2.25-11.37,6.74-15.44
		C160.7,356.09,165.19,354.27,170.39,354.27"/>
	<path id="XMLID_24_" class="st1" d="M73.26,354.69c-9.54-0.14-12.63,5.19-12.63,5.19l-0.42-4.63h-8.56v39.86h10.11v-24.14
		c0-5.19,2.95-9.4,8.56-9.4c5.89,0,7.58,5.19,7.58,9.4v24.14h9.26v-23.44C87.16,359.46,80.56,354.83,73.26,354.69"/>
	<path id="XMLID_25_" class="st1" d="M21.76,395.53c9.54,0.14,12.63-5.19,12.63-5.19l0.42,4.63h8.7v-39.86h-9.96v24.14
		c0,5.19-2.95,9.4-8.56,9.4c-5.89,0-8.28-5.19-8.28-9.4v-24.14H6.74v23.44C6.6,390.76,14.6,395.53,21.76,395.53"/>
	<path id="XMLID_26_" class="st1" d="M149.05,387.25c-1.82,2.53-4.07,4.49-6.74,6.04c-3.23,1.82-6.88,2.67-10.67,2.67
		c-5.75,0-10.67-1.96-14.74-6.04c-4.07-4.07-6.04-8.98-6.04-14.74c0-6.18,2.25-11.37,6.88-15.44c4.07-3.65,8.56-5.33,13.89-5.33
		c3.79,0,7.3,0.98,10.67,2.81c2.81,1.54,5.05,3.51,6.74,6.04l-7.44,5.33c-0.42-1.12-1.12-2.11-1.82-2.95
		c-2.11-2.53-4.77-3.79-7.86-3.79c-3.23,0-5.75,1.26-7.86,3.79c-2.11,2.53-3.09,5.75-3.09,9.54c0,3.93,1.12,7.3,3.09,9.68
		c2.11,2.53,4.63,3.65,7.86,3.65c3.09,0,5.75-1.26,7.86-3.79c0.84-0.84,1.4-1.96,1.96-3.09L149.05,387.25"/>
	<path id="XMLID_27_" class="st1" d="M444.63,356.09c-3.79-4.91-7.58-7.58-7.58-7.58l-3.79,2.67l6.32,8.7L444.63,356.09z
		 M468.07,363.67h7.58v3.23h-7.58V363.67z M475.65,374.62h-7.58v-3.23h7.58V374.62z M461.61,366.9h-7.58v-3.23h7.58V366.9z
		 M461.61,374.62h-7.58v-3.23h7.58V374.62z M463.86,357.07c-3.09-2.11-6.6-3.65-6.6-3.65l-2.53,3.23l2.53,2.25h-9.68v28.63h1.96
		c2.11,0,4.49-1.4,4.49-4.35v-3.93h7.58v8.28h1.96c2.53,0,4.35-1.26,4.49-4.35v-3.93h7.58v1.96c0,0.98-0.98,1.54-1.96,1.54h-2.95
		l1.4,4.77h4.77c3.23,0,5.75-2.53,5.75-5.75v-18.95c0-2.11-1.68-3.93-3.93-3.93h-7.58l9.96-6.04v-5.47H447.3v4.77H472L463.86,357.07
		z M446.73,389.77c-1.68,0-3.09-1.4-3.09-3.09v-24.7h-10.81v4.77h3.65v21.89c0,3.79,3.23,6.04,5.75,6.04h41.12v-4.77h-36.63"/>
	<path id="XMLID_35_" class="st1" d="M418.52,374.05h8.28v-4.77h-9.26v-7.3h9.26v-4.91h-6.04l5.47-6.88l-5.19-3.79l-6.88,10.53
		h-4.91l3.93-2.95c-3.51-4.77-6.32-7.72-6.32-7.72l-3.79,2.25l4.91,8.28h-6.04v4.77h8v7.3h-8v4.77h7.02l-8.42,21.47h3.65
		c1.96,0,3.79-1.26,4.63-3.09l5.05-12.77l7.02,15.86h7.02L418.52,374.05z M392.14,370.41h-5.75v-5.89h5.75V370.41z M392.14,380.93
		l-5.75,1.68v-7.44h5.75V380.93z M402.24,378.12l-3.23,0.84v-26.81c0-2.95-1.82-4.77-4.07-4.77h-16.98v4.77h14.18v7.44h-5.75v-4.91
		h-6.46v29.61l-2.81,0.84v5.33l15.16-4.21v9.68h2.67c2.25,0,3.65-1.26,4.21-3.93v-7.72l3.23-0.84v-5.33"/>
	<path id="XMLID_40_" class="st1" d="M304.84,374.34c0,1.68-1.4,3.09-3.09,3.09h-9.68v-19.51h12.77V374.34z M307.79,353.14h-15.72
		v-6.6h-8.14v6.6h-10.25v4.77h10.25v19.51h-12.77v-24.28h-8.14v29.05h20.91v13.75h1.26c4.63-0.14,6.6-2.11,6.88-5.61v-8.14h13.75
		c3.79,0,6.88-2.95,7.02-6.74v-17.4C312.84,355.39,310.6,353.14,307.79,353.14"/>
	<path id="XMLID_43_" class="st1" d="M359.44,380.37h-3.65l2.39-2.95c-3.23-2.95-5.61-4.49-5.61-4.49l-2.95,2.95l4.07,4.49h-5.47v-8
		h11.09v-4.77h-11.09v-5.89h11.09v-4.77h-28.63v4.77h10.11v5.89h-10.11v4.77h10.11v8h-10.39v4.77h29.05V380.37z M364.21,347.39
		h-33.82v4.77h31.58v34.67c0,1.68-1.4,3.09-3.09,3.09H328v-42.53h-7.58v47.3h42.25c3.79,0,6.88-3.09,6.88-6.88v-35.37
		C369.4,349.63,367.16,347.39,364.21,347.39"/>
</g>
</svg>
